# xmcd
#
# Track frame offsets: 
#        150
#        12043
#        22277
#        34388
#        54094
#        67106
#        82283
#        110639
#        122368
#        136961
#        148960
#        158382
#        172200
#        179148
#        192289
#        204783
#        217842
#        234014
#
# Disc length: 3383 seconds
#
# Revision: 0
# Processed by: cddbd v1.5.2PL0 Copyright (c) Steve Scherf et al.
# Submitted via: ExactAudioCopyFreeDBPlugin 1.0
#
DISCID=000d3512
DTITLE=Captain Beefheart and His Magic Band - Live 1966-67
DYEAR=1966
DGENRE=Blues
TTITLE0=Down In The Bottom
TTITLE1=Don't Start To Me Talkin'
TTITLE2=The Sun Is Shining
TTITLE3=Tupelo
TTITLE4=Somebody In My Home
TTITLE5=Old Folks' Boogie
TTITLE6=St James Infirmary
TTITLE7=Evil (Is Going On)
TTITLE8=Harp Instrumental
TTITLE9=Somebody In My Home
TTITLE10=Sure 'Nuff'n'Yes I Do
TTITLE11=Call On Me
TTITLE12=Yellow Brick Road
TTITLE13=Plastic Factory
TTITLE14=Sure'Nuff'n'Yes I Do
TTITLE15=Yellow Brick Road
TTITLE16=Abba Zaba
TTITLE17=Kandy Korn
EXTD=
EXTT0=
EXTT1=
EXTT2=
EXTT3=
EXTT4=
EXTT5=
EXTT6=
EXTT7=
EXTT8=
EXTT9=
EXTT10=
EXTT11=
EXTT12=
EXTT13=
EXTT14=
EXTT15=
EXTT16=
EXTT17=
PLAYORDER=
